<?xml version="1.0" encoding="UTF-8"?>
<svg version="1.1" viewBox="0 0 2048 1365" width="2000" height="2000" xmlns="http://www.w3.org/2000/svg">
<path transform="translate(1310,219)" d="m0 0h7l1 1v6l-4 6-11 14-12 14-11 11-8 7-13 11-13 10-19 14-18 13-15 10-19 11-26 15-18 12-1 1 29 1 19 3 11 2 14-10 26-17 23-12 26-12 32-13 31-11 39-11 32-6 23-3 34-2 30-1h18l11 2-1 5-5 4-16 8-36 15-50 20-37 12-64 16-33 10-48 17-15 5 1 5 5 6 5 5 5 10 3 11v28l-5 15-8 15-2 3 20-5 16-2 3-1 9-15 10-13 12-13 10-9 18-13 18-10 17-8 28-10 20-5 30-4 37-1 10-4 16-9 26-13 24-11 35-16 39-15 19-7 33-11 27-7 29-6 32-4 50-4 19-1h29l5 2-1 5-7 6-14 8-17 8-37 14-15 5-18 5-86 21-50 13-28 7-66 14-17 4 37 8 16 6 19 9 9 6 9-3 22-11 25-9 23-7 27-6 57-12 38-6 44-5 32-1h66l35 2 38 4 17 3 3 1-1 4-10 5-52 18-43 12-24 6-33 5-49 5-50 4-15 1-32 1h-115v4l4 2 6 9 4 13 1 6v18l-2 9-9 19-8 11-14 14-18 12-14 7 15-3 43-11 42-13 34-11 27-7 27-5 42-7 36-4 38-2h45l2 1-2 4-40 12-23 8-35 15-32 14-31 12-19 6-34 8-28 4-13 1-27 1h-53l-35-2-34-3-35 4h-31l-22-2-35-6-26-6-6-2h-8l-21 5-51 8-30 4h18l61 9 36 6 15 2 19 1h34l13-1 40-2 48-2h67l55 6 26 5 20 6 36 14 31 13-1 4-8 4-18 5-25 4-20 2-51 2h-80l-27-3-31-6-34-8-27-7-67-14-30-7-41-13-14-5-13-4-26-5h-41l-15 1-6 2 18 7 50 17 27 9 23 7 24 6 63 13 24 7 28 10 33 16 23 12 24 14 15 8 1 5-6 1-114-22-53-11-38-10-20-7-13-5-23-12-22-12-20-11-17-10-19-13-16-12-3-2h-7l-22 3-34 2-31-1-31-2-1 1 10 2 34 10 61 21 42 16 25 11 25 12 21 11 19 12 18 13 16 13 11 9 14 12 6 5v4h-10l-22-5-27-9-25-11-3-2-9-3-40-20-19-10-24-14-26-15-43-24-16-8-37-17-16-7-14-7-16-4-84-12-19-4h-23l-22 4-20 6-24 8-25 11-26 12-33 16-26 14-41 26-17 11-20 12-16 10-19 11-18 10-23 14 32-4 65-5 56-4 33-4 31-8 38-12 44-15 36-13 28-9 27-6 28-4 42-3 42-2h31v3l-10 7-14 6-36 13-31 11-27 10-25 9-19 5-25 3-89 6-36 4 65 6h29l25-3 97-16 25-3 13-1h46l26 2 104 13 13 2 4 2-1 3-16 5-34 8-22 5-46 10-37 9-16 2-24 2h-40l-28-3-86-14-17-2 25 9 35 13 35 11 36 9 67 14 48 11 42 11 51 14 6 3v3l-1 1h-41l-95-1-29-3-23-5-30-8-18-6-35-10-44-10-20-7-25-13-14-9-24-15-13-8-17-10-14-8-7-1-9 1-24 1-19 2-24 1-58 1-45 5-19 4-16 6-22 11-23 14-22 14-26 17-12 8-19 13-20 14-17 12-18 13-19 13-16 12-17 12-17 13-16 13-10 8-14 12-11 10-11 9-4 5 42-8 47-7 4-5 8-13 10-13 11-13 18-18 17-12 30-20 21-12 23-11 21-6 25-4 18-1h24l24 2 22 4 20 7 14 8 13 13 7 10 7 14 3 11 1 14-2 14-6 16-7 12-8 11-8 10-13 13-14 11-21 14-19 10-11 4-21 7-25 5-25 2h-28l-27-3-24-4-20-6-19-10-11-7-12-9-10-8-11-14-2-1h-16l-46 7-37 8-10 6-15 12-14 11-14 12-14 11-13 12-8 7-11 10-8 7-24 22-13 12-8 7-17 13v-3l9-10 8-8 1-2h-5l-1-5 9-9 10-8 8-7 7-8 4-5 8-7 11-9 12-13 10-8 2 2-4 5-8 7-14 13-7 6-7 8-13 12-12 13-4 7 16-15 19-19 8-7 15-14 14-11 16-13 18-14 19-14 13-9 7-3 30-7 49-8 8-1h9l10 1 4-6 8-4h2l-1-3-10 6-25 3-36 6-29 5h-14l-3-5 7-8 15-15 8-7 15-13 14-11 12-10 20-15 21-16 14-10 36-26 40-28 16-11 36-24 20-12 23-14 27-14 18-5 26-4 47-4 21-1 47-1 29-2h17v-2l-6-1-1-5-9 2-66 6-75 6-32 4-9 2-1-4 10-8 22-14 26-15 39-24 35-23 22-14 27-16 28-14 28-13 19-9 27-11 27-8 23-5 2-1v-3l28-13 31-13 28-12-25 10-37 15-29 12-16 4h-9l1-6 7-6 18-10 24-15 19-12 19-14 15-14 11-9 20-13 12-8 5-4 6-9-11 7-15 10-4 1 5-5 10-9 14-11 18-14 16-12 14-11 16-13 17-13 16-12 18-13 26-17 29-17 16-10 22-13 21-13 27-16 7-4 2 1-11 9-24 15-19 12-21 13-24 15-18 11-16 11-20 14-19 14-17 13-11 9-2 3 17-9 26-10 18-6 15-8 25-17 17-11 16-10 19-13 20-14 18-13 16-12 12-11 20-20 9-11 5-7 4-4 1-2-17 5-32 12-27 12-30 15-24 14-28 17-16 11-20 14-18 13-17 12-16 12-13 11-14 11-8 8-8 7-24 24-7 8-40 40-7 8-17 16-16 13-15 10-18 10-19 12-21 12-26 14-25 12-18 10-16 11-15 10-16 8-28 15-29 14-16 8-18 10-25 15-18 11-38 25-19 12-21 13-27 16-22 12-24 13-4-1-1-2-13 12-12 12-11 9-9 8-17 13-19 14-21 16-14 11-13 11-14 11-11 10-11 9-13 11-10 9-11 10-12 9h-2l2-5 11-16 10-14 1-4-8 10-11 11-7 8-15 15-11 9-17 16-16 16-8 7-25 25-8 7-8 8-8 7-36 36-8 7-2 3h-2l-2 4-16 16-8 7-7 6-2-1 7-11 12-13 9-9 8-7 38-38 8-7 11-11 8-7 20-20h2l2-4 14-14 6-7 8-7 16-15 13-13 8-7 9-9 7-8 10-11 11-15 9-15 8-19 6-23 9-45 8-39 8-30 9-25 12-23 10-16 6-9 13-18 9-12 13-16 11-14 18-22 16-20h5l1 1v8l-10 30-11 28-10 27-12 36-4 10-5 17-7 16-10 21-12 22-7 12 5-4 12-14 9-11 14-15 12-12 5-6 11-9 15-12 18-13 23-16 11-7 3 1 1 5-7 14-13 19-16 22-11 14-11 13-9 10-7 8-19 19-8 7-9 8-20 15-21 16-14 10-17 13-7 8-13 24-13 23-11 18-2 3 8-7 10-9 11-9 10-9 11-9 10-9 14-11 16-13 19-14 18-14 17-13 14-12 20-18 7-7 7-8 10-12 14-21 11-18 12-19 4-9-1-6-4-12-4-21-2-19v-12l3-30 4-23 8-24 11-28 11-22 13-19 9-10 8-9 15-11 19-11 19-9 18-6 11-2 18-1 18 3 14 5 12 7 17 14 7 8 10 15 5 13 3 13v9l1 5-1 10-4 21-4 14-8 16-9 16-8 10-7 8-18 18-18 13-18 12-18 10-25 10-27 9-34 9-16 4-8 5-7 9-10 18-10 15-12 16-11 13-5 6 14-8 22-14 26-16 23-14 39-26 20-13 21-13 26-14 19-10 41-19 26-13 19-12 16-11 10-9 8-8 9-11 13-16 13-17 11-14 14-19 16-23 14-19 11-14 12-13 9-9 7-8 28-28 17-13 21-14 19-9 20-9h8l1 6-7 14-12 17-11 14-10 11-7 8-9 9-7 8-7 7-7 8-15 15-7 8-8 8-7 8-10 10-7 8-11 12-7 8-24 24-11 9-1 2 18-11 15-10 27-16 16-11 11-9 7-7 8-7 9-9 7-8 9-9 8-7 19-19 7-8 7-7 7-8 24-22 11-9 15-12 19-14 36-26 23-16 23-15 28-16 18-10 33-16 28-11 34-12zm529 63-27 1-47 4-37 6-37 9-32 10-28 10-43 17-32 14-37 17-23 11-11 5 2 2 7-1 10-6 17-7 21-9 38-13 39-12 28-8 36-9 79-17 27-5h4l-29 7-60 13-42 11-47 14-29 9-40 13-18 8-16 7v1h7l49-11 28-6 14-4 17-4 41-12 25-6 16-4 34-8 40-11 31-11 27-11 12-7 8-6v-1zm-352 8-35 1-30 3-36 6-31 8-41 14-24 10-20 9-25 12-21 12-12 8-14 10v3l2 1h6l14-8 36-18 30-13 44-15 36-10 56-13h3l-39 10-35 10-30 9-29 10-20 9-54 27-8 5 1 3 4 1 17-5 50-18 31-10 41-10 24-6 36-12 37-14 37-16 21-9 5-2-3-2zm-480 51-29 13-10 5-24 18-17 17-8 7-9 9-7 8-12 13-9 11-14 18-14 21-28 38-11 13-12 14-4 6 1 2 11-11 9-11 11-14 13-16 12-13 12-14 15-16 12-12 7-8 62-62 8-6-3 5-21 21-7 8-12 12-7 8-7 7-7 8-7 7-7 8-12 14-14 15-7 8-12 14-10 11-7 8-12 14-24 24 1 2 14-8 13-10 11-9 14-12 14-14 9-11 11-13 9-11 11-12 7-8 8-8 7-8 8-8 7-8 16-17 10-10 3-5 5-5 11-12 15-20 10-14zm845 25-42 3-42 6-25 5-38 8-42 10-27 9-18 7-17 9 4 1 14-6 15-5 36-9 32-6 44-6 45-5 43-3 27-1h51l-66 3-63 5-33 4-56 9-31 7-29 8-12 3-1 2 26 1h38l54-1 36-2 60-6 34-4 43-7 16-4 25-7 50-15 14-5v-2l-34-4-42-2zm-721 17-6 2-2 20-1-19-1-1h-5l-3 3-1 7h2l-4 5-1 6h-2l-1-5h-7v-2l5-1 4-4 1-7-9 2-4 4-4 7v-3l1-5-5 2-5 5-3 4v2l10-1 2 12 3 1-3 1-3-1v-11l-17 5 6-10 1-3-6 1-8 5-4 7v2l5-1 2-1-5 5-5 4-2 6v4l7-1-3 3-7 5-2 4-2 1-1-4h-5v-2l5-2 4-5 1-7-5 1-5 4-5 9-2 1 2-4-1-4-9 6-5 6-2 7 12-5h2v13l7-3 6-1-2 2-6 3-7-1-1-4v-5l-11 6-2 2-1 10 7-2-3 3-5 4-1 5-2-2-4 1-6 5-1 2v8h3l4-1-3 3-4-1-2-9-4 1-9 8v7l4 1 2-1-4 5v7l1 2h-2l-1-7-6 1-1 1v8l1 3h7l-5 4v8l-3-6-6 1-3 2 1 5 3 6 7-1-5 3 2 5 6 5h5l-1-5-3-7 4 4 4 6 6-4-1-4 4 2 4-1 5-5-1-2 8 2-1 7-3-2-5 1-3 2-1 3-9 2-4 2v2l24 6 20 3 19 2h19l22-3 25-6 17-5 21-9 17-9 14-10 12-11 11-11 10-14 7-14 2-6v-26l-4-16-8-11-7-7-11-8-12-5-17-5-16-3-9-1zm308 10-10 5-6 4-3 1 9-9-12 1-11 3-7 4-4 4v2h12v2l-10 1-7 3-4 5-3 6 1 4-5 5-2 4v3h11l16-1v2l-4 2v2l-4-3h-19l-3 3 1 11 14-1 9 3 1 12 6 1-5 2-1 3-2-2h-17v-2l12-1 5-2-1-12h-8l-13 3-1 7h-2l-3-6-9-1 10-4 1-10-12 2-32 8-4 2v6l1 2 17-3 3-3 1-4 4 5 4 2-5 2 1 9 1 2 12-1h10l3 2 3 12h8l-7 2v6l1 2-3-2-3-6h-7v-2h5l1-5-2-6h-10l-11 1-3-3-2-9-16 1-7 1-1 4 4 6 9 3-8 3v6l1 2 22-1 5 2 5 10 1 1 7 1-6 3 1 5 2 7-6-12h-8l-3-1-1-2 9-1 1-3-3-7h-25l-4-3-3-7-9 1-10 3-1 3 2 5h6v2l-5 1-1 4-3-3-10 1-5 2-2 3 1 6 2 2 13-1 1 2-7 1-2 4 6 6 18-1v2l-14 1 5 5 4 2h21l-2 1-12 2 5 4 15 7 35 10 30 6 15 2 23 2h18l27-3 28-5 27-9 20-9 14-9 10-8 8-7 10-15 8-17 2-8v-19l-4-11-6-11-9-9-13-10-14-8-16-6-27-7-29-5-25-2-9 2-7 1 1-3zm-49 8-17 6-10 7 3 1 17-4 6-4 4-6zm-333 5-8 7-2 6 5-1 5-5 2-7zm-14 8-8 5-5 6 1 3 11-6 4-5v-3zm312 0-13 8 2 1 12-6 2-3zm24 1-21 7-4 5-3 5v2l18-4 7-3 4-6 1-6zm-748 6-18 2-20 6-25 12-16 10-3 4-2 14-2-1-2-8-6 4-3 8v10l1 7v8l-4-8-3 3-6 11v10l6 16 1 4-5-8-5-12h-2l-5 12v9l5 12 3 1v8l4 10-7-9-3 4-4 9 2 6 6 15-5-5-5-6h-2l-4 11 3 9 3 4h3l4-6-3 10 1 4 6 7-9-5-6 15 2 5 5 5 3-1 2 5-3 2-2 16-1 13-3-11-4-3 1 15 1 2h-2l-3-10-4-15-2-3-3 1v8l3 9 7 9v2l-5-3-4 1-1 4 4 4 8-1 15-5 1-4v-10l2 13 2 1 44-13 25-9 26-12 21-14 14-10 9-7 7-8 9-9 10-14 7-10 8-16 6-17 4-22 1-19-3-17-5-12-6-10-14-15-10-8-9-6-9-4-13-3zm709 2m-316 3-9 7-6 6-1 7 7-6 8-8 2-3zm305 1-8 6-5 4-2 4 5-2 11-9 1-3zm19-1-15 8-4 5v2l5-1 11-4 3-4 1-6zm23 6-21 6-2 6 1 3 9-1 13-3 3-8v-3zm-58 9m28 0-12 5-4 4-1 3 2 1 18-5 1-2v-6zm-337 1-7 7-4 8 1 3 9-9 2-9zm14 0-9 7-4 5-1 4 6-2 6-4 4-10zm294 0m8 0-7 5 2 1 6-4 1-2zm-328 3m307 5m-1 1-7 8 1 2 7-8zm20 0-11 6-5 5 5-1 11-4 1-6zm-319 7-9 11h3l8-7 1-4zm13 0-8 7-1 8 5-1 6-5 1-2v-7zm304 3-11 5-5 4-1 4 2 1 10-4 7-2v-8zm-330 5m-1 1-2 5 3-3zm13 2-8 7-2 3v4l5-1 8-7v-6zm-24 1-14 8-14 11-12 11-17 13-18 12-44 26-12 8-1 2 9-1 16-6 23-10 41-16 17-8 5-4 12-25 11-19 1-2zm-446 4-5 7-2 10v8l4-4 4-8v-13zm765-1-7 6-1 4 8-6 2-3zm22 0-11 4-4 3 1 5 10-1 9-3-1-7zm-331 2m-1 1m293 2-8 13-10 2-23 5-14 3-5 6 2 1 24-6 20-4 2-1v-2l11 2v-9l2-10zm-292 4-4 5 1 4 5-5v-4zm309 1-7 5 2 1 7-3v-3zm-777 9-6 12-1 11 2 4 6-12v-15zm459 0-2 4 3-2zm317 0-8 4-2 2v3l3 1 14-3-2-7zm-307 0-5 4v7l4-1 3-3-1-7zm884 4-47 4-49 7-47 8-29 6-44 13-41 12-60 16v1h12l42-6 45-8 79-16 44-10 23-6h4l-15 5-120 29-34 7-44 7-24 3h-12l-6 1v1l52 1 54-2 30-3 38-8 25-7 28-10 36-16 30-12 48-16v-1zm-893 3-7 7-1 4 6-2 3-3v-6zm288 2-29 6-23 6-16 12-13 10-14 8-19 8-25 8-26 6-19 3h-23l-27-3-26-5-20-6-12-6-10-9-6-8-8 2-37 15-27 12-2 2h40l49 7 40 5 34 3 39 2h42l53-2 23-3 25-4 91-12 10-2v-3l-17-9-14-10-12-11-8-8-5-8-3-6zm-289 9-6 4 1 9 5-1 5-4-2-8zm-12 2-3 3h3zm-459 4-4 8-2 8v12l3-3 5-13-1-12zm458 2-2 4 2 6 4-2v-6l-1-2zm3 11-2 3 7 7h2l-1-7-2-3zm-458 7-4 8-2 9 6 12h4l4-9-1-8-6-12zm467 5 1 3h2l-1-3zm-482 5-1 2v15l2-1 2-8-1-8zm302 12m-296 1-4 9 2 10 4 9 3-3 2-5-1-9-5-11zm294 2m-1 1m-3 3 1 2 1-2zm102 2 3 2 41 7 42 6 49 5 54 4 22 1h14l38-4 4-2v-1h-38l-51-1-49-3-40-5-36-5-8-2-21-2zm-404 1-2 4 1 12 2 1 1-7v-9zm299 1m755 0m-1136 1-7 7-11 14-14 17-11 14-12 16-13 18-10 15-10 18-8 17-7 18-7 24-7 33-6 33 1 3 15-42 16-40 10-22 13-23 15-28 16-27 5-7-13 26-10 19-11 23-11 25-15 33-9 22-9 23-8 25 1 4 11-15 12-18 12-19 13-24 10-19 11-26 13-36 12-35 6-16 13-34 5-13zm86 12-1 5v12l3 8h2l3-9-1-5-5-11zm-9 10-1 4v16l2 1 2-11v-7l-1-3zm834 1m24 4m197 0-52 1-59 2-12 1v1l47 4 73 8 61 6 58 5 25 4-31-3-60-3-40-3-24-2-20-2-60-7-85-5-24-2h-6l4 2 33 7 49 10 66 16 26 5 27 3 18 1h49l97-2 29-3 18-4v-3l-23-10-41-14-20-5-13-2-41-4-17-1zm-340 2 3 3 26 12 28 11 39 16 21 7 40 11 35 8 9 1 1-6 3-1-1 9 13 4 3-1v-8h3v8l3 3 5-2 3 6-23-6-59-13-28-7-47-16-28-12-29-13-6-3-3 1 11 7 17 10 24 13 19 10 15 7 20 8 29 8 43 10 74 14 45 8h2v-2l-30-16-19-10-25-12-21-8-23-6h-3l1 10-6-5h-2l3-7-13-3-42-8-44-11-36-12-35-12-13-5zm128 2m-826 1-3 9 1 6 3 6 3 1 4-10v-6l-5-6zm-12 5v19l2 1 2-6v-9l-2-5zm718 1m1 1m-172-11 4 3 30 13 35 17 25 13 22 12 29 16 21 12 7 3 16-2-7 2-5 1 3 3 30 15 7 3 14 7 27 11 34 11 10 2-2-4-15-13-13-11-18-13-14-9-19-12-26-13-27-12-29-12-36-13-36-12-13-4-3 1 45 19 33 15 35 17 37 19 20 12 14 10 8 6-9-5-20-12-18-10-33-16-23-11-27-13-24-10-39-17-21-9-26-10zm-539 24-2 4v12l4 8h1l2-11v-6l-4-7zm-15 5 1 8h1v-7zm24 7-2 12 1 7 4 4 2-2 3-14-5-5zm-18 4v3h2v-3zm0 6 1 4zm573 7-46 2-49 4-35 5-27 7-29 9-34 12-62 21-30 9-7 2 1 2 21-5 61-19 25-7 32-8 38-7 43-7 13-2 30-6 1 1-28 7-59 12-54 13-39 9-15 4-28 8 3 2 36-4 44-4 34-4 9-3 7-10 4-2-2 4-7 7v1l8-1 5-6 4-6h2l-1 5-3 4 8-1 6-9 4-1-3 7 10-2 37-13 27-8 44-15 12-6v-1zm-603 21-19 13-17 13-10 8-12 11-27 27-7 8-9 10-9 11-13 15-10 12-7 9v2l-4 2-1 3 4-2 12-12 7-8 44-44 7-8 31-31 7-5-6 8-12 13-16 17-11 11-7 8-7 7-7 8-10 10-7 8-33 33h3l17-13 18-14 10-9 13-11 12-11 22-22 9-11 11-13 13-18 11-16 12-17 1-2zm36 16-16 27-9 15-8 13 1 2 6-7 14-22 12-20 3-4-1-4zm531 26-26 2-40 6-68 12-16 2v1l54 2 46-1 41-2 76-5h11l4 12-5-5-6-5h-8l-45 5-51 4-39 2h-35l-37-1h-29l-7-1-23-1 2 2 17 4 82 12 28 3 36 1 25-1 31-4 45-9 8-2 19-3-3-6v-6l7 1h3l6 8h5v-3l-1-5h3l3 6h2l2-5 5 1 1 1h11l30-6-1-2-49-6-45-6-23-2zm-282 16 1 2 23 1 16 2 12 3h5l-3-2-16-4-18-2zm59 3v2l3 1h14v-1zm-2 5m319 0-1 4h5l-2-4zm-659 7-1 2h2zm298-8 4 2 34 9 38 14 16 8 29 12 34 12 24 7 68 20 30 7 30 6 4 1-23-3-27-6-43-11-48-13-23-6-36-12-29-13-26-12-36-12-3 1 16 10 27 16 15 9 18 10 10 5 25 7 8 2 13 2 35 10 57 18 27 6 24 3 15 1h29l1-8h2v8l88 4-1-2-50-11-49-12-51-11-60-13-26-7-36-12-86-34-25-7-25-5zm-302 14v3zm385 0m-394 11v3zm-117 19m-3 4v3l2-3zm-19 45m-1 1m196 18-6 7v1h18l-2 1-13 1-5 2-4 9v2h-2l2-7v-4l-10 1-8 1-1-1 5-3 2-7-3-1-7 2-5 7-3 1 3-5v-2l-9 2-6 4-3 7 8-1 5-1v11h-3l1-8-7 1-6 3-3 5-1 6h8l-2 2h-10l4-10v-2l-6 1-9 4-3 10 5-1-8 8-1 6-2-1v-6l-15 5-2 10 3 1 6-2-3 3-23 8-4 4-2 6-1 16 13-1-3 2-6 2h-9l2-3v-8l-10 3-3 3v10l-1 2v9l11-1 4 2 2 8-3-1-2-6-11-1-4-1-1-8-2-1-12 4-1 9 9-1 3 1v2l-11 2-1 1v11l1 1 11-1 3-2v-10l3 1 2 10 16-1h2v9l1 5h11l-9 3 1 9h-2l-2-6-4-2h-8l10-3-2-12-2-1-12 2 1 9 1 3-3-1-4-10-10 1-8 3h-7l-3 2 2 11 1 1 8-1 1-5 3 4 8 1v1l-7 2 2 10 3 4 10-1 6-2-1-5-2-4 3 2 2 6 18-1-15 5-14 4v2l15 6 18 5 21 4 16 2 15 1h19l26-2 31-7 25-10 16-9 21-14 10-8 10-9 9-10 9-11 10-17 6-18 1-4v-14l-5-14-11-18-4-5-14-10-14-7-23-5-24-4zm-10 0-9 2-3 4v4l11-1 5-6-1-3zm-49 10-12 6-4 6 1 2 10-3 5-5 2-6zm-19 9-11 6-5 4-1 3 6-1 9-5 3-5zm-22 13-11 6-5 5 5-1 13-8v-2zm16-1-12 6-4 6 2 2 13-5 3-8zm-20 9-14 9-1 3 6-1 9-5 2-3v-3zm-22 9m-1 1m-2 1m-120 1 1 2 1-2zm124 1m16 0-10 4-3 3-1 8 9-3 5-3 3-9zm-18 1-3 3 5-2zm-1 7-8 4-3 3-1 5 2 1 10-5 2-3v-5zm-15 7-12 9-1 3 6-1 7-4 1-7zm11 6-9 5-2 4v4l7-1 6-2 1-3v-7zm-129 7m114 0-10 6-3 3v4l10-3 4-3 1-7zm-16 1-1 2 4-1zm-1 8-10 6-2 2v3l6-1 6-3 1-7zm15 4-12 6-1 4 3 1 10-3 2-5v-3zm-19 8-9 6v3l9-3 3-5zm-15 2-2 1 1 3 3-2v-2zm11 9-6 4-1 3 1 2 8-1 2-2v-6zm0 12-7 3 1 10 2 1 8-2v-10l-1-2zm-14 4-10 7-1 2 3 4 9-1 3-1-1-11zm-5 16 1 3 8 7 4 1-1-8-1-3zm21 14-3 2 9 8h3l-3-9-1-1z" fill="#000
"/>
<path transform="translate(1192,494)" d="m0 0h2l-1 5-7 9-11 8-25 12-14 7h-4l2-4 14-7 15-6 11-7 12-11z" fill="#000
"/>
<path transform="translate(174,997)" d="m0 0 2 1-8 7-12 9-12 11-11 8h-2l1-6 7-7 27-18z" fill="#000
"/>
<path transform="translate(1410,413)" d="m0 0h3l-4 10 17-3 9 1 4 2v1l-10 2-3 6h-3v-7l-7 1h-13l-2-2 5-5z" fill="#000
"/>
<path transform="translate(1321,509)" d="m0 0 9 2 5 4 3 6h14l2 2-1 1-13 2 3 6h7l-3 3-5-1-6-8-4-2 3-1-4-9h-14l-2-3z" fill="#000
"/>
<path transform="translate(1e3 505)" d="m0 0 5 1v8l2 5 7-2 3-3 4 2 2 6v4h-2l-5-6-5 2-6-1-5-5v-3l-7 1-2-2 8-6z" fill="#000
"/>
<path transform="translate(1554,522)" d="m0 0h2l-1 3-16 8-16 6-11 2 3-3 27-11z" fill="#000
"/>
<path transform="translate(387,945)" d="m0 0 4 2 1 9 18-1 1 2 1 15-2-1-3-14-10 3h-8l-2-5z" fill="#000
"/>
<path transform="translate(1395,457)" d="m0 0 4 2v12h6l2 2-7 1v5l-3-3h-13l-4-1v-2l17-3z" fill="#000
"/>
<path transform="translate(666,551)" d="m0 0h6l2 4-4 3-22 1-1-2 10-4z" fill="#000
"/>
<path transform="translate(1449,398)" d="m0 0 1 4 2 4-8 2-4 2h-4v-2l-11-2v-2l17-2z" fill="#000
"/>
<path transform="translate(1523,443)" d="m0 0 3 1-2 4-12 8-4 2-2 4-3 2v-5l9-10 8-5z" fill="#000
"/>
<path transform="translate(1583,633)" d="m0 0h7l16 4-1 2-21 1-4-2 2-4z" fill="#000
"/>
<path transform="translate(1067,435)" d="m0 0 5 2 2 1-2 5-1 2-1 9-4-2v-7l-5 1v-4l5-4z" fill="#000
"/>
<path transform="translate(1491,499)" d="m0 0 5 1 2 5v6l-2 2-5-1-4-6 2-5z" fill="#000
"/>
<path transform="translate(1529,544)" d="m0 0h6l-1 3-12 5-8 2-3 3-6-1 2-3h5l5-4z" fill="#000
"/>
<path transform="translate(870,699)" d="m0 0 5 1 2 2 6-1 7-1-1 3-10 3-10 1-2-4 1-3z" fill="#000
"/>
<path transform="translate(643,449)" d="m0 0 5 1 2 5-3 5h-5l-3-4 1-5z" fill="#000
"/>
<path transform="translate(569,926)" d="m0 0h4v7l-4 12-3 2v-10l2-9z" fill="#000
"/>
<path transform="translate(1467,403)" d="m0 0h12l16 1 6 1-1 2h-16l-14-1-3-1z" fill="#000
"/>
<path transform="translate(446,907)" d="m0 0 2 1v4h10v2l-9 2-4 2-5-3 3-3z" fill="#000
"/>
<path transform="translate(1068,459)" d="m0 0 4 1 4 16-1 4-5-8-2-6z" fill="#000
"/>
<path transform="translate(363,962)" d="m0 0 6 1 3 4v6l-4-1-1-5-11-1v-3z" fill="#000
"/>
<path transform="translate(632,603)" d="m0 0 3 1-5 5-10 6-8 4h-2l-1-4h3l5-2 9-5z" fill="#000
"/>
<path transform="translate(608,598)" d="m0 0 8 1 4 3-1 8-4-2-3 1 1-4 1-5-6 1z" fill="#000
"/>
<path transform="translate(1321,509)" d="m0 0 9 2 5 5h-3l-1-2h-14l-2-3z" fill="#000
"/>
<path transform="translate(1020,514)" d="m0 0 5 2 2 6v4h-2l-5-6-6 1z" fill="#000
"/>
<path transform="translate(589,944)" d="m0 0h2l-1 5-12 15-2-1 7-10z" fill="#000
"/>
<path transform="translate(389,920)" d="m0 0 7 6v3l-2 1h-6l-2-1v-2h2z" fill="#000
"/>
<path transform="translate(535,918)" d="m0 0h5l1 7-3 3-3-1-1-2v-6z" fill="#000
"/>
<path transform="translate(1442,521)" d="m0 0 5 1 4 5v3l-6-1-4-4z" fill="#000
"/>
<path transform="translate(1111,539)" d="m0 0h9l-2 4-4 2h-6l1-5z" fill="#000
"/>
<path transform="translate(1120,473)" d="m0 0 4 3 3 8-1 4-7-9v-5z" fill="#000
"/>
<path transform="translate(403,955)" d="m0 0h7l1 2 1 15-2-1-3-14-4 1z" fill="#000
"/>
<path transform="translate(991,519)" d="m0 0 7 7h5l-2 3h-2l-1 3-4-1z" fill="#000
"/>
<path transform="translate(407,934)" d="m0 0 5 1 5 2-4 3-5 1-4-4z" fill="#000
"/>
<path transform="translate(596,529)" d="m0 0 1 3-3 8h-4l2-9z" fill="#000
"/>
<path transform="translate(1149,461)" d="m0 0 5 1 4 6v3l-5-2-5-5z" fill="#000
"/>
<path transform="translate(390,976)" d="m0 0 5 2-2 8-5-5-5-1 1-2z" fill="#000
"/>
<path transform="translate(854,703)" d="m0 0 5 3-1 4h-6l-2-1 1-5z" fill="#000
"/>
<path transform="translate(1529,463)" d="m0 0 4 1-1 9-1 2h-2l-1-2v-9z" fill="#000
"/>
<path transform="translate(1085,836)" d="m0 0 2 1-2 5-4 3h-4l1-4 5-4z" fill="#000
"/>
<path transform="translate(1356,647)" d="m0 0 5 1-4 8-3 2v-8z" fill="#000
"/>
<path transform="translate(510,956)" d="m0 0 5 1v5l-4 2-3-2 1-5z" fill="#000
"/>
<path transform="translate(1079,830)" d="m0 0h3l-1 4-9 6-2-1 7-8z" fill="#000
"/>
<path transform="translate(1042,452)" d="m0 0h6l-1 3-7 3h-5l1-3z" fill="#000
"/>
<path transform="translate(429,900)" d="m0 0 4 1-2 5-3 1v-3l-5 1-3-2z" fill="#000
"/>
<path transform="translate(1026,497)" d="m0 0h6l2 2 2 11-3-3-3-8-5 1-3 1 1-3z" fill="#000
"/>
<path transform="translate(1516,525)" d="m0 0 5 1 1 4-5 2-3-2 1-4z" fill="#000
"/>
<path transform="translate(649,503)" d="m0 0h2l-1 12-2 2-1-1v-8z" fill="#000
"/>
<path transform="translate(929,663)" d="m0 0 4 2 4 5-1 2-6-3-2-5z" fill="#000
"/>
<path transform="translate(409,914)" d="m0 0 3 2v3l8 1-1 2h-8l-2-2z" fill="#000
"/>
<path transform="translate(456,894)" d="m0 0 8 1 2 1-1 5h-2v-4h-7z" fill="#000
"/>
<path transform="translate(660,567)" d="m0 0 3 1 1 7h-4l-1-7z" fill="#000
"/>
<path transform="translate(1049,476)" d="m0 0 3 3 1 7-4-1-1-8z" fill="#000
"/>
<path transform="translate(460,878)" d="m0 0h7l2 2v4l-5-2-4-2z" fill="#000
"/>
<path transform="translate(946,661)" d="m0 0 5 1 1 4-1 2-5-2z" fill="#000
"/>
<path transform="translate(1419,446)" d="m0 0 3 1 2 7-6-1v-6z" fill="#000
"/>
<path transform="translate(592,608)" d="m0 0 2 1v2l-11 6-2-1 9-7z" fill="#000
"/>
<path transform="translate(543,984)" d="m0 0 4 1-2 5h-4l1-5z" fill="#000
"/>
<path transform="translate(598,511)" d="m0 0 4 1-2 5-3 1-1-5z" fill="#000
"/>
<path transform="translate(630,507)" d="m0 0 2 1-1 8h-3v-6z" fill="#000
"/>
<path transform="translate(1192,674)" d="m0 0h11l3 2h-16z" fill="#000
"/>
<path transform="translate(1515,550)" d="m0 0m-1 1m-1 1 1 2-3 3-6-1 2-3h5z" fill="#000
"/>
<path transform="translate(647,524)" d="m0 0h2v7l-1 4h-2v-9z" fill="#000
"/>
<path transform="translate(1636,639)" d="m0 0 5 1 1 3h-8v-3z" fill="#000
"/>
<path transform="translate(661,461)" d="m0 0h5l1 4-4 1-2-2z" fill="#000
"/>
<path transform="translate(545,973)" d="m0 0 5 3 1 3-5-1-2-4z" fill="#000
"/>
<path transform="translate(627,527)" d="m0 0h2l-1 7-1 2h-2l1-8z" fill="#000
"/>
<path transform="translate(1175,456)" d="m0 0h4v5l-2 1-3-3z" fill="#000
"/>
<path transform="translate(1089,429)" d="m0 0 3 1 1 7-3-1z" fill="#000
"/>
<path transform="translate(938,663)" d="m0 0 4 1 1 4-5-1-1-3z" fill="#000
"/>
<path transform="translate(1548,482)" d="m0 0h2l-1 4-5 2 2-5z" fill="#000
"/>
<path transform="translate(1462,420)" d="m0 0h11l1 2h-10z" fill="#000
"/>
<path transform="translate(444,932)" d="m0 0h2v11l-2-2z" fill="#000
"/>
<path transform="translate(490,874)" d="m0 0h9l3 2h-11z" fill="#000
"/>
<path transform="translate(1703,549)" d="m0 0 3 1 1 6-3-1z" fill="#000
"/>
<path transform="translate(610,529)" d="m0 0h2l-1 8-2 2v-7z" fill="#000
"/>
<path transform="translate(1015,492)" d="m0 0 3 1 1 6-3-1z" fill="#000
"/>
<path transform="translate(1048,458)" d="m0 0 2 3v5h-2l-1-7z" fill="#000
"/>
<path transform="translate(1070,422)" d="m0 0 5 2-1 3-5-2z" fill="#000
"/>
<path transform="translate(426,942)" d="m0 0 2 2v9l-2-3z" fill="#000
"/>
<path transform="translate(449,887)" d="m0 0 3 1-1 4h-3z" fill="#000
"/>
<path transform="translate(482,886)" d="m0 0 2 1-1 6h-2v-6z" fill="#000
"/>
<path transform="translate(614,510)" d="m0 0h2l-2 6h-2l1-5z" fill="#000
"/>
<path transform="translate(426,925)" d="m0 0h2v5l-2 1-1-5z" fill="#000
"/>
<path transform="translate(1690,552)" d="m0 0h2v7l-2-1-1-5z" fill="#000
"/>
<path transform="translate(1622,637)" d="m0 0 4 1 1 3-4-1z" fill="#000
"/>
<path transform="translate(633,592)" d="m0 0 2 1-5 4-2-1z" fill="#000
"/>
<path transform="translate(1709,550)" d="m0 0 3 1 1 4-4-2z" fill="#000
"/>
<path transform="translate(1057,501)" d="m0 0 4 2 1 4-5-5z" fill="#000
"/>
<path transform="translate(565,885)" d="m0 0 3 1v3l-4-2z" fill="#000
"/>
<path transform="translate(1034,473)" d="m0 0h5l-3 3-3-2z" fill="#000
"/>
<path transform="translate(1029,469)" d="m0 0h3v4l-3-1z" fill="#000
"/>
<path transform="translate(671,512)" d="m0 0 2 1v3h-3z" fill="#000
"/>
<path transform="translate(609,589)" d="m0 0h3v3h-3z" fill="#000
"/>
<path transform="translate(1420,465)" d="m0 0h2l1 6-2-2z" fill="#000
"/>
<path transform="translate(677,460)" d="m0 0h3l-1 3-3-1z" fill="#000
"/>
<path transform="translate(625,586)" d="m0 0h3l-1 3-2-1z" fill="#000
"/>
<path transform="translate(1039,520)" d="m0 0 2 2-1 3z" fill="#000
"/>
<path transform="translate(620,583)" d="m0 0h2v3h-2z" fill="#000
"/>
<path transform="translate(1439,435)" d="m0 0 2 1-5 1z" fill="#000
"/>
<path transform="translate(432,932)" d="m0 0h2v2l-3-1z" fill="#000
"/>
<path transform="translate(602,494)" d="m0 0h2v2l-3-1z" fill="#000
"/>
<path transform="translate(176,996)" d="m0 0" fill="#000
"/>
<path transform="translate(373,625)" d="m0 0" fill="#000
"/>
<path transform="translate(519,618)" d="m0 0" fill="#000
"/>
<path transform="translate(580,617)" d="m0 0" fill="#000
"/>
<path transform="translate(516,593)" d="m0 0" fill="#000
"/>
</svg>
