<?xml version="1.0" encoding="UTF-8"?>
<svg version="1.1" viewBox="0 0 2048 1365" preserveAspectRatio="none" xmlns="http://www.w3.org/2000/svg">
<path transform="translate(978,647)" d="m0 0h21l12 5 8 6 4 8 1 3 3-8 6-7 12-6 4-1h21l20 4 27 9 26 11 7-1 21-6 24-5 25-3h27l19 3 18 6 17 9 15 9 11 5 9 2h10l9-3 5-3 3-6v-7l-3-6-5-3h-9l-6 4-1 7 2 3 4 1 2-1v-8l3 1 1 6-4 5h-6l-5-4-1-8 4-7 5-3 10-1 8 4 5 6 1 3v10l-5 8-7 5-11 3h-9l-13-3-17-8-15-9-12-6-17-5-15-2h-26l-26 3-28 6-11 3-1 1 19 8 36 12 30 7 24 4 18 2 17 1h13l23-2 21-5 16-6 20-11 15-9 15-7 15-4h19l12 4 8 6 5 6 2 4v3h438l2-5 3-2h10l4 1 9-6 16-4h20l15 5 14 9 2 4-11 8-10 5-11 3h-18l-14-3-8-4-5-2-4 2h-7l-5-3-2-4h-437l-2 11-6 8-10 5h-11l-10-5-4-5-1-3v-10l5-6 2-1h9l4 5v8l-2 3h-3l1-3v-7l-2-2h-5l-4 4v8l5 6 4 2h11l6-3 5-6 1-4v-8l-4-8-5-4-10-4-5-1h-11l-16 4-17 8-25 15-16 8-19 6-15 3-8 1h-45l-31-4-29-6-31-9-24-9-23-10-10 3-35 15-27 9-18 3h-7l-10-3-8-5-4-8-5 8-7 5-11 3-14-1-17-4-20-7-37-16-8-2-31 13-33 11-28 7-36 6-10 1h-45l-19-3-18-5-18-8-29-17-16-8-17-4h-10l-12 3-8 6-4 6v12l4 7 7 4h11l6-3 4-6v-6l-5-5-6 1-1 6 2 4h-4l-2-4 1-7 4-4h8l5 3 3 5v8l-3 6-7 6-5 2h-11l-9-4-7-8-2-6v-8h-437l-2 5-4 2h-9l-5-2v2l-6 4-12 4-7 1h-18l-13-4-10-5-9-7 2-4 14-9 15-5h20l16 4 8 5 6-2h7l5 3 2 4h438l2-6 6-7 14-7 5-1h18l15 4 16 7 22 13 17 9 18 6 15 3 22 2h14l26-2 32-5 26-6 24-7 27-10 9-4-4-2-23-6-23-4-21-2h-19l-21 3-18 6-18 10-14 8-15 5-6 1h-8l-11-3-6-4-5-6-2-10 3-8 4-5 8-3 10 1 7 6 2 7-3 7-4 2-7-1-2-3v-6l4-2-1 7 1 1h7v-9l-4-4-2-1h-9l-6 4-2 4v9l4 6 8 4 5 1h9l12-3 16-8 15-9 15-7 14-4 11-2 11-1h17l22 2 31 6 24 7 6 1 23-10 30-10zm8 5-18 3-21 6-22 9-11 5 1 2 49 21 21 6 6 1h14l9-4 5-5 1-2v-7l-7 5-6 2h-8l-8-3-7-6 1-2 7 6 4 2h11l6-3 4-5-1-4-5-3h-7l-6 3-4 3 4-5 8-3 8 1 5 2v-8l-4-8-7-5-13-4zm66 0-12 4-8 6-3 6v9l10-3 9 2 5 4 1 3h-2l-2-4-6-3h-7l-6 3-1 3 3 5 7 4h11l8-4 3-4 2 1-5 6-10 4h-8l-8-3-4-4h-2l1 8 5 6 9 4h15l18-4 21-8 32-14 6-3-4-3-27-11-19-6-14-3-8-1zm-29 22-1 9 1 5 2-2v-9zm-956 3-12 3-12 6-4 3 1 3 10 6 11 4 6 1h10l13-2 10-4 5-4 1-4-5-6-10-4-12-2zm1902 0-15 3-8 4-4 5 2 5 5 4 13 4 9 1h10l12-3 12-6 4-3-1-3-12-7-9-3-6-1z" fill="#000"/>
<path transform="translate(978,647)" d="m0 0h21l12 5 8 6 4 8v30l-4 6-7 5-11 3-14-1-17-4-20-7-37-16-8-2-31 13-33 11-28 7-36 6-10 1h-45l-19-3-18-5-18-8-29-17-16-8-17-4h-10l-12 3-8 6-4 6v12l4 7 7 4h11l6-3 4-6v-6l-5-5-6 1-1 6 2 4h-4l-2-4 1-7 4-4h8l5 3 3 5v8l-3 6-7 6-5 2h-11l-9-4-7-8-2-6v-8h-437l-2 5-4 2h-9l-5-2v2l-6 4-12 4-7 1h-18l-13-4-10-5-9-7 2-4 14-9 15-5h20l16 4 8 5 6-2h7l5 3 2 4h438l2-6 6-7 14-7 5-1h18l15 4 16 7 22 13 17 9 18 6 15 3 22 2h14l26-2 32-5 26-6 24-7 27-10 9-4-4-2-23-6-23-4-21-2h-19l-21 3-18 6-18 10-14 8-15 5-6 1h-8l-11-3-6-4-5-6-2-10 3-8 4-5 8-3 10 1 7 6 2 7-3 7-4 2-7-1-2-3v-6l4-2-1 7 1 1h7v-9l-4-4-2-1h-9l-6 4-2 4v9l4 6 8 4 5 1h9l12-3 16-8 15-9 15-7 14-4 11-2 11-1h17l22 2 31 6 24 7 6 1 23-10 30-10zm8 5-18 3-21 6-22 9-11 5 1 2 49 21 21 6 6 1h14l9-4 5-5 1-2v-7l-7 5-6 2h-8l-8-3-7-6 1-2 7 6 4 2h11l6-3 4-5-1-4-5-3h-7l-6 3-4 3 4-5 8-3 8 1 5 2v-8l-4-8-7-5-13-4zm-919 25-12 3-12 6-4 3 1 3 10 6 11 4 6 1h10l13-2 10-4 5-4 1-4-5-6-10-4-12-2z" fill="#000"/>
</svg>
